# xmcd
#
# Track frame offsets:
#	150
#	21088
#	54825
#	80068
#	112452
#	143534
#
# Disc length: 2219 seconds
#
# Revision: 1
# Processed by: cddbd v1.5.1PL0 Copyright (c) Steve Scherf et al.
# Submitted via: dBpowerAMP V4.0
#
DISCID=4b08a906
DTITLE=Elvin Jones/McCoy Tyner Quintet - Love And Peace
DYEAR=1992
DGENRE=Jazz
TTITLE0=Little Rock's Blues
TTITLE1=Hip Jones
TTITLE2=Korina
TTITLE3=For Tomorrow
TTITLE4=Sweet and Lovely
TTITLE5=Origin
EXTD=
EXTT0=
EXTT1=
EXTT2=
EXTT3=
EXTT4=
EXTT5=
PLAYORDER=
